<svg width="22" height="22" viewBox="0 0 22 22" fill="none" xmlns="http://www.w3.org/2000/svg">
<path d="M0.292873 1.70709C-0.0976242 2.09758 -0.0976242 2.7308 0.292873 3.1213L8.07105 10.8995L0.292873 18.6776C-0.0976242 19.0681 -0.0976242 19.7014 0.292873 20.0919L1.70709 21.5061C2.09758 21.8966 2.7308 21.8966 3.1213 21.5061L10.8995 13.7279L18.6776 21.5061C19.0681 21.8966 19.7014 21.8966 20.0919 21.5061L21.5061 20.0919C21.8966 19.7014 21.8966 19.0681 21.5061 18.6776L13.7279 10.8995L21.5061 3.1213C21.8966 2.7308 21.8966 2.09758 21.5061 1.70709L20.0919 0.292873C19.7014 -0.0976242 19.0681 -0.0976242 18.6776 0.292873L10.8995 8.07105L3.1213 0.292873C2.7308 -0.0976242 2.09758 -0.0976242 1.70709 0.292873L0.292873 1.70709Z" fill="white"/>
</svg>
