<svg width="56" height="56" viewBox="0 0 56 56" fill="none" xmlns="http://www.w3.org/2000/svg">
<circle cx="28" cy="28" r="28" fill="#61A8DE"/>
<path d="M15.155 27.6851L21.0524 29.8862L23.335 37.2272C23.4811 37.6974 24.056 37.8712 24.4376 37.5592L27.7249 34.8793C28.0695 34.5985 28.5603 34.5845 28.9205 34.8459L34.8496 39.1506C35.2578 39.4474 35.8362 39.2237 35.9386 38.7304L40.282 17.8377C40.3937 17.2989 39.8643 16.8494 39.3512 17.0478L15.148 26.3847C14.5508 26.615 14.556 27.4606 15.155 27.6851ZM22.9672 28.7145L34.4929 21.6158C34.7001 21.4886 34.9132 21.7687 34.7353 21.9337L25.2232 30.7756C24.8889 31.0868 24.6732 31.5033 24.6121 31.9554L24.2881 34.3567C24.2452 34.6773 23.7948 34.7091 23.7063 34.3988L22.4601 30.0201C22.3174 29.5206 22.5254 28.9872 22.9672 28.7145Z" fill="white"/>
</svg>
