<svg width="56" height="56" viewBox="0 0 56 56" fill="none" xmlns="http://www.w3.org/2000/svg">
<circle cx="28" cy="28" r="28" fill="#47668D"/>
<path fill-rule="evenodd" clip-rule="evenodd" d="M27.6782 35.9327H29.4715C29.4715 35.9327 30.0128 35.8773 30.2893 35.599C30.5446 35.3425 30.5361 34.8622 30.5361 34.8622C30.5361 34.8622 30.5011 32.6132 31.6176 32.2815C32.7182 31.9547 34.1323 34.4552 35.6301 35.4168C36.7636 36.1446 37.6248 35.9852 37.6248 35.9852L41.6309 35.9327C41.6309 35.9327 43.7262 35.8119 42.7326 34.272C42.651 34.1462 42.1532 33.1321 39.7539 31.0495C37.2413 28.8699 37.5782 29.2224 40.6045 25.4514C42.4466 23.1559 43.1838 21.7536 42.9529 21.1535C42.7337 20.5811 41.3788 20.7326 41.3788 20.7326L36.8674 20.7583C36.8674 20.7583 36.5327 20.7158 36.2848 20.8544C36.0433 20.9901 35.8876 21.307 35.8876 21.307C35.8876 21.307 35.1725 23.0836 34.2213 24.5948C32.2129 27.7835 31.4089 27.9519 31.0806 27.7538C30.3168 27.2923 30.5075 25.901 30.5075 24.9117C30.5075 21.8209 31.0096 20.5326 29.5319 20.1988C29.0415 20.0889 28.6802 20.0156 27.4261 20.0037C25.817 19.9879 24.4548 20.0077 23.6836 20.3612C23.1699 20.5959 22.7737 21.1198 23.0152 21.1495C23.3129 21.1871 23.9887 21.3198 24.3467 21.7754C24.8086 22.3636 24.7927 23.6837 24.7927 23.6837C24.7927 23.6837 25.0586 27.3211 24.172 27.7736C23.5639 28.0826 22.7303 27.4508 20.9391 24.5571C20.0217 23.0757 19.329 21.4377 19.329 21.4377C19.329 21.4377 19.1955 21.1317 18.9571 20.9673C18.668 20.7692 18.2644 20.7059 18.2644 20.7059L13.9775 20.7326C13.9775 20.7326 13.3345 20.7494 13.0983 21.0109C12.8875 21.2436 13.0813 21.7249 13.0813 21.7249C13.0813 21.7249 16.4371 29.065 20.2368 32.7638C23.7218 36.1555 27.6782 35.9327 27.6782 35.9327Z" fill="white"/>
</svg>
