<svg width="56" height="56" viewBox="0 0 56 56" fill="none" xmlns="http://www.w3.org/2000/svg">
<circle cx="28" cy="28" r="28" fill="#4CAF50"/>
<path d="M16.3989 36.903L16.5631 36.4136L16.2592 35.9963C14.5218 33.6103 13.5 30.6726 13.5 27.5C13.5 19.5038 20.0023 13 27.9961 13H28.0039C35.9976 13 42.5 19.5056 42.5 27.5C42.5 35.4944 35.9976 42 28.0039 42C25.0536 42 22.3211 41.1232 20.0292 39.605L19.6293 39.3401L19.1724 39.4861L15.0951 40.7895L16.3989 36.903Z" fill="#4CAF50" stroke="white" stroke-width="2"/>
<path d="M34.5762 32.0379C34.2984 32.804 33.1956 33.4395 32.316 33.6251C31.7142 33.7502 30.9281 33.85 28.282 32.7787C24.8973 31.4094 22.7176 28.0509 22.5477 27.833C22.3851 27.6151 21.1801 26.0546 21.1801 24.4407C21.1801 22.8267 22.0194 22.0409 22.3577 21.7035C22.6356 21.4265 23.0948 21.3 23.5354 21.3C23.6779 21.3 23.806 21.307 23.9212 21.3126C24.2595 21.3267 24.4294 21.3464 24.6526 21.868C24.9304 22.5217 25.6071 24.1356 25.6877 24.3015C25.7697 24.4674 25.8518 24.6923 25.7366 24.9102C25.6287 25.1351 25.5336 25.235 25.3638 25.4262C25.1939 25.6173 25.0326 25.7636 24.8627 25.9688C24.7073 26.1474 24.5316 26.3385 24.7274 26.6689C24.9232 26.9923 25.5999 28.0705 26.5961 28.9366C27.8818 30.0542 28.9241 30.4113 29.297 30.5631C29.5748 30.6756 29.9059 30.6489 30.1089 30.438C30.3666 30.1667 30.6848 29.7168 31.0087 29.274C31.2391 28.9562 31.5299 28.9169 31.8351 29.0293C32.1461 29.1348 33.7916 29.9291 34.1299 30.0936C34.4683 30.2595 34.6914 30.3382 34.7735 30.4774C34.8541 30.6165 34.8541 31.2703 34.5762 32.0379Z" fill="#FAFAFA"/>
</svg>
