<svg width="109" height="66" fill="none" xmlns="http://www.w3.org/2000/svg"><g clip-path="url(#clip0)"><path d="M2.597 24.455c24.048-1.361 24.766 14.18 22.12 22.12V67.56l42.537 1.701c2.836-17.204 1.928-53.313-24.388-60.12C16.549 2.337 5.055 16.516 2.597 24.456z" fill="#99F2DC"/><path d="M74.945 28.776c.195.194.292.292.292.39-.097.291-.097 0-.292-.39zM48.833 9.496c3.507.389 12.958 3.213 18.512 5.647-.78 0-1.559-.097-2.533-.195-1.462-.097-2.241.585-2.436 1.948-.195 1.46 2.143 3.31 4.872 5.55 2.338 1.85 5.066 4.09 6.722 5.453-.779-.195-1.364-.292-1.753-.39-2.728-.68-3.8-.973-3.41 2.143.097.487.292.876.584 1.363.877 1.363 3.41 5.064 4.092 14.509l3.898-.487c-.487-6.33-1.754-10.516-2.826-13.048 2.728.292 4.092-.584 4.482-2.045.682-2.629-4.872-7.206-9.159-10.614-.097-.097-.195-.194-.292-.194 1.267-.098 2.24-.195 2.923-.39 2.923-1.071 3.118-2.63 1.17-4.48-.683-.68-1.95-1.46-3.606-2.239-5.651-2.629-16.466-5.842-20.46-6.33l-.78 3.798z" fill="#000"/><path d="M70.583 29.311c.19.195.285.292.285.389-.095.291-.095 0-.285-.389zm-25.449-19.22c3.419.389 12.63 3.204 18.042 5.63-.76 0-1.52-.096-2.469-.193-1.424-.098-2.184.582-2.374 1.941-.19 1.456 2.09 3.3 4.748 5.533a471.985 471.985 0 016.552 5.436c-.76-.194-1.33-.291-1.709-.388-2.659-.68-3.703-.971-3.323 2.135.094.486.284.874.57 1.36.854 1.358 3.323 5.047 3.987 14.462l3.799-.485c-.475-6.31-1.71-10.483-2.754-13.007 2.659.291 3.988-.583 4.368-2.039.665-2.62-4.748-7.183-8.926-10.58-.095-.097-.19-.194-.285-.194 1.235-.098 2.184-.195 2.849-.389 2.849-1.067 3.039-2.62 1.14-4.465-.665-.68-1.9-1.456-3.514-2.232-5.507-2.621-16.048-5.825-19.941-6.31l-.76 3.786z" fill="#99F2DC"/><path d="M24.67 53.411l.194-.486c1.559-5.746 4.482-16.36.682-22.494-2.923-4.771-9.938-6.135-17.538-7.595l-2.923-.584c1.072-4.87 7.015-9.154 14.713-11.393A40.796 40.796 0 0134.12 9.398c4.97.39 9.938 1.753 14.323 4.187 10.718 6.037 18.61 19.183 16.174 42.845l-.292 2.532 2.533-.292c5.066-.585 9.84-1.364 14.225-2.045 6.723-1.071 12.959-2.045 19.876-2.435 1.267-.097 2.436.974 3.021 2.143.195.486.39 1.07.39 1.558 0 .486 0 .876-.195 1.265-.39.78-1.462 1.461-3.41 1.461l-87.398.584v4.09l87.592-.682c3.898 0 6.139-1.655 7.113-3.797.487-.974.585-2.142.585-3.213a8.295 8.295 0 00-.877-3.02c-1.267-2.628-3.8-4.673-6.918-4.478-7.113.39-13.446 1.46-20.363 2.531a524.366 524.366 0 01-11.595 1.753c1.754-24.051-6.82-37.684-18.512-44.305-4.97-2.824-10.523-4.285-16.077-4.674-5.456-.39-10.912.194-15.784 1.558C8.3 9.884.7 16.312.7 23.907v1.655l1.559.39c1.559.292 3.215.681 4.774.973 6.625 1.266 12.861 2.532 14.81 5.746 2.825 4.673.194 14.216-1.17 19.377l-.097.487 4.092.876z" fill="#000"/><path fill-rule="evenodd" clip-rule="evenodd" d="M7.521 16.799c-2.338 0-4.19 1.752-4.19 3.895 0 2.142 1.852 3.895 4.19 3.895s4.19-1.753 4.19-3.895c0-2.143-1.852-3.895-4.19-3.895zm28.061-2.922c-1.949 0-3.508 1.46-3.508 3.214 0 1.752 1.56 3.213 3.508 3.213 1.949 0 3.507-1.46 3.507-3.213 0-1.753-1.656-3.214-3.507-3.214z" fill="#000"/><path d="M41.038 8.424c1.364-2.337 2.533-3.213 3.313-3.31.097 0 .292 0 .39.097.194.097.292.292.39.487.486.876.486 2.142-.196 3.213l3.508 2.045c1.462-2.434 1.364-5.258.195-7.303-.487-.78-1.072-1.46-1.851-1.948a4.538 4.538 0 00-2.826-.681c-2.046.097-4.384 1.558-6.528 5.258l3.605 2.142zM27.69 7.45c0-2.823-1.17-4.966-2.729-6.037-.681-.487-1.558-.779-2.338-.779-.877 0-1.656.292-2.436.877-1.461 1.07-2.63 3.408-2.63 7.108h4.092c0-2.24.39-3.505.974-3.895 0 0 .098 0 .098.097.487.39.877 1.266.877 2.63h4.092z" fill="#000"/><path fill-rule="evenodd" clip-rule="evenodd" d="M22.526 11.54c-1.949 0-3.508 1.46-3.508 3.214 0 1.752 1.56 3.213 3.508 3.213s3.507-1.46 3.507-3.213c0-1.753-1.559-3.214-3.507-3.214z" fill="#000"/><path d="M13.172 26.439c-.195.779-.682 2.629-1.17 4.09-.291.778-.486 1.557-.584 1.85l3.898 1.168c.194-.682.39-1.266.584-1.85.487-1.558 1.072-3.506 1.267-4.48l-3.995-.778zm4.385 1.558c-.195.779-.682 2.629-1.17 4.09-.292.778-.487 1.557-.584 1.85l3.897 1.168c.195-.682.39-1.266.585-1.85.487-1.558 1.072-3.506 1.266-4.48l-3.994-.778z" fill="#000"/><path d="M21.876 29.898c2.498 1.774 9.25 3.707 16.268-2.755" stroke="#000" stroke-width="4"/></g><defs><clipPath id="clip0"><path fill="#fff" transform="matrix(-1 0 0 1 108.657 .634)" d="M0 0h107.761v64.657H0z"/></clipPath></defs></svg>