<svg width="211" height="42" fill="none" xmlns="http://www.w3.org/2000/svg"><path d="M122.383 2.788c0 .32-.026.544-.077.675-.046.126-.114.188-.205.188h-2.179v7.084c0 .057-.02.106-.06.145a.402.402 0 01-.179.103c-.08.023-.191.04-.334.051a6.937 6.937 0 01-.538.017 7.12 7.12 0 01-.547-.017 1.952 1.952 0 01-.333-.051.483.483 0 01-.18-.103.216.216 0 01-.051-.145V3.651h-2.179a.217.217 0 01-.128-.042.384.384 0 01-.094-.146 1.246 1.246 0 01-.051-.265 4.023 4.023 0 01-.017-.41c0-.165.005-.302.017-.41.011-.114.028-.202.051-.265a.384.384 0 01.094-.145.217.217 0 01.128-.043h6.58a.18.18 0 01.119.043.311.311 0 01.086.145.903.903 0 01.06.265c.011.108.017.245.017.41zm6.033 5.666c-.206.53-.413.968-.624 1.316a3.294 3.294 0 01-.667.82 2.2 2.2 0 01-.794.427 3.521 3.521 0 01-1.812.017 2.191 2.191 0 01-.299-.11c-.08-.04-.14-.075-.179-.103a.506.506 0 01-.103-.12.98.98 0 01-.06-.205 3.226 3.226 0 01-.043-.333c-.005-.137-.008-.31-.008-.522 0-.245.023-.421.068-.53.052-.113.117-.17.197-.17.04 0 .088.017.145.05l.205.112c.08.04.171.077.274.111.102.034.216.051.341.051a.999.999 0 00.24-.025.697.697 0 00.205-.103.943.943 0 00.179-.205 2.17 2.17 0 00.188-.35l-2.888-5.896c-.08-.16-.128-.29-.145-.393-.012-.109.017-.194.085-.257.069-.062.182-.105.342-.128a4.74 4.74 0 01.641-.034c.262.006.47.014.624.026.159.011.284.037.376.077.096.034.17.085.222.153a.895.895 0 01.145.265l1.162 2.53c.114.245.222.5.325.769.108.262.211.518.307.769h.035c.068-.234.139-.467.213-.701.08-.24.16-.473.239-.7l1-2.778a.6.6 0 01.111-.205.448.448 0 01.205-.12c.097-.028.225-.048.385-.06.159-.01.367-.02.624-.025.245 0 .438.009.581.026.148.017.253.048.316.094.063.04.091.102.085.188a1.22 1.22 0 01-.085.333l-2.358 5.939zm10.057 1.145c0 .233-.014.418-.043.555a.599.599 0 01-.162.333c-.08.08-.194.16-.342.24a3.03 3.03 0 01-.521.222 4.245 4.245 0 01-.701.162 4.781 4.781 0 01-.837.068 5.347 5.347 0 01-1.812-.29 3.648 3.648 0 01-1.376-.872 3.875 3.875 0 01-.88-1.452c-.205-.581-.307-1.256-.307-2.025 0-.775.108-1.462.324-2.06.223-.598.527-1.1.915-1.504a3.8 3.8 0 011.41-.914 4.996 4.996 0 011.811-.316c.245 0 .484.02.718.06.239.04.458.094.658.162.205.063.387.137.547.222.159.086.279.168.359.248a.7.7 0 01.171.333c.034.137.051.348.051.633 0 .165-.009.301-.026.41a1.246 1.246 0 01-.051.265.282.282 0 01-.094.145.181.181 0 01-.12.043c-.068 0-.154-.037-.256-.111a3.302 3.302 0 00-1-.504 2.6 2.6 0 00-.837-.12c-.353 0-.667.07-.94.213a1.904 1.904 0 00-.692.59 2.854 2.854 0 00-.419.923 4.547 4.547 0 00-.145 1.188c0 .512.057.957.171 1.333.114.37.273.675.478.914.211.233.459.407.744.521.29.108.612.162.965.162.296 0 .553-.034.769-.102.222-.074.413-.151.573-.23a6.67 6.67 0 00.401-.232c.114-.074.205-.11.274-.11.04 0 .074.01.102.034.029.022.052.065.069.128.017.062.028.154.034.273.011.114.017.268.017.462zm10.442-3.256c0 .763-.103 1.447-.308 2.05a4.031 4.031 0 01-.888 1.522 3.813 3.813 0 01-1.462.948c-.575.217-1.236.325-1.982.325-.735 0-1.384-.086-1.948-.256a3.42 3.42 0 01-1.41-.812c-.382-.376-.672-.86-.872-1.453-.194-.598-.29-1.316-.29-2.153 0-.735.102-1.399.307-1.991a4.155 4.155 0 01.906-1.504 3.808 3.808 0 011.453-.948c.581-.223 1.244-.334 1.991-.334.706 0 1.335.089 1.888.265a3.537 3.537 0 011.419.83c.387.37.683.845.888 1.426.205.581.308 1.276.308 2.085zm-2.307.103c0-.456-.04-.866-.12-1.23a2.493 2.493 0 00-.376-.932 1.703 1.703 0 00-.701-.598c-.284-.137-.635-.206-1.051-.206-.433 0-.794.08-1.085.24a1.92 1.92 0 00-.709.64 2.789 2.789 0 00-.385.932 5.45 5.45 0 00-.111 1.12c0 .484.037.914.111 1.29.08.376.208.695.385.957.177.256.407.453.692.59.285.13.635.196 1.051.196.422 0 .778-.077 1.068-.23a2 2 0 00.718-.642 2.78 2.78 0 00.393-.957c.08-.364.12-.755.12-1.17zm11.646 1.794c0 .342-.051.647-.153.914a2.173 2.173 0 01-.419.71 2.459 2.459 0 01-.632.52 4.295 4.295 0 01-.804.36 4.974 4.974 0 01-.914.196 8.95 8.95 0 01-1.085.06h-2.854a.648.648 0 01-.436-.154c-.114-.102-.171-.262-.171-.478v-7.81c0-.217.057-.376.171-.479a.648.648 0 01.436-.154h2.879c.576 0 1.069.043 1.479.128a3.01 3.01 0 011.051.41c.285.189.504.428.658.718.154.29.23.641.23 1.051 0 .223-.031.433-.094.633a1.871 1.871 0 01-.256.538c-.114.16-.253.3-.419.419a1.9 1.9 0 01-.546.282c.267.045.515.125.743.239.228.108.424.254.59.436.17.176.304.387.401.632.097.245.145.521.145.829zm-2.785-3.7c0-.165-.026-.313-.077-.444a.819.819 0 00-.239-.334 1.083 1.083 0 00-.402-.205 2.356 2.356 0 00-.641-.068h-1.179v2.153h1.256c.268 0 .476-.028.624-.085.148-.063.27-.143.367-.24a.973.973 0 00.214-.35 1.21 1.21 0 00.077-.427zm.427 3.76c0-.182-.031-.345-.094-.487a.895.895 0 00-.273-.376 1.179 1.179 0 00-.47-.23c-.194-.058-.459-.086-.795-.086h-1.333v2.307h1.529c.268 0 .485-.026.65-.077a1.18 1.18 0 00.419-.222.97.97 0 00.273-.35 1.17 1.17 0 00.094-.48zm11.416 2.452a.205.205 0 01-.051.137.351.351 0 01-.18.094 1.96 1.96 0 01-.35.051 6.955 6.955 0 01-.538.017 6 6 0 01-.616-.025 2.535 2.535 0 01-.384-.052.567.567 0 01-.205-.102.508.508 0 01-.094-.162l-.752-2.026a7.44 7.44 0 00-.308-.726 1.518 1.518 0 00-.316-.461.942.942 0 00-.393-.24 1.69 1.69 0 00-.513-.068h-.384v3.52c0 .046-.02.092-.06.137a.554.554 0 01-.197.111 1.782 1.782 0 01-.341.069 4.399 4.399 0 01-.513.025 4.57 4.57 0 01-.53-.025 1.766 1.766 0 01-.333-.069.558.558 0 01-.188-.11.228.228 0 01-.051-.137V2.207c0-.051.017-.097.051-.136a.476.476 0 01.188-.103 1.8 1.8 0 01.333-.068c.143-.017.319-.026.53-.026.199 0 .37.009.513.026.142.017.256.04.341.068a.48.48 0 01.197.103c.04.04.06.085.06.136v3.29h.384c.177 0 .334-.023.47-.068.137-.046.262-.123.376-.231.114-.114.22-.265.316-.453a5.94 5.94 0 00.299-.71l.65-1.81a.78.78 0 01.094-.172.312.312 0 01.171-.102c.085-.029.202-.048.35-.06a8.21 8.21 0 01.598-.017c.217 0 .393.006.53.017.142.012.251.029.325.051.08.023.134.054.162.094a.164.164 0 01.051.12c0 .057-.011.134-.034.23a3.278 3.278 0 01-.119.36l-.633 1.589c-.125.33-.253.604-.384.82a2.861 2.861 0 01-.393.539 1.967 1.967 0 01-.402.341c-.131.08-.265.143-.402.188v.026a2.143 2.143 0 01.94.65c.137.159.268.355.393.589.131.228.263.498.394.812l.769 1.88c.039.09.071.168.094.23.022.063.039.117.051.163.017.04.025.074.025.102a.377.377 0 01.009.077zm9.528-.564c.062.2.105.356.128.47.023.114.003.202-.06.265-.063.057-.179.091-.35.103a7.524 7.524 0 01-.718.025c-.279 0-.499-.005-.658-.017a2.232 2.232 0 01-.359-.034.344.344 0 01-.171-.094.8.8 0 01-.077-.18l-.555-1.623h-3.504l-.521 1.572a.715.715 0 01-.102.197.363.363 0 01-.18.11c-.08.03-.196.046-.35.052a8.055 8.055 0 01-.59.017c-.256 0-.456-.008-.598-.025-.137-.018-.234-.057-.29-.12-.052-.063-.069-.154-.052-.273.023-.12.066-.277.128-.47l2.854-7.87a.687.687 0 01.12-.214.47.47 0 01.231-.128 2.14 2.14 0 01.418-.06 17.7 17.7 0 011.299-.009c.171 0 .314.006.428.018.119.011.216.028.29.05a.48.48 0 01.18.078.363.363 0 01.119.128.788.788 0 01.077.17l2.863 7.862zm-4.555-6.451h-.017l-1.239 3.725h2.504l-1.248-3.725zm-49.902 13.051c0 .32-.026.544-.077.675-.046.126-.114.188-.205.188h-2.179v7.084c0 .057-.02.105-.06.145a.402.402 0 01-.179.103c-.08.023-.191.04-.334.051a6.937 6.937 0 01-.538.017 7.12 7.12 0 01-.547-.017 1.952 1.952 0 01-.333-.051.483.483 0 01-.18-.103.216.216 0 01-.051-.145v-7.084h-2.179a.217.217 0 01-.128-.042.384.384 0 01-.094-.146 1.247 1.247 0 01-.051-.265 4.024 4.024 0 01-.017-.41c0-.165.005-.302.017-.41.011-.114.028-.202.051-.265a.384.384 0 01.094-.145.217.217 0 01.128-.043h6.58a.18.18 0 01.119.043.311.311 0 01.086.145.906.906 0 01.06.265c.011.108.017.245.017.41zm7.186 7.383c0 .154-.008.285-.026.393a1.23 1.23 0 01-.051.257.28.28 0 01-.094.136.18.18 0 01-.119.043h-4.905a.648.648 0 01-.436-.154c-.114-.102-.171-.262-.171-.478v-7.81c0-.217.057-.376.171-.479a.648.648 0 01.436-.154h4.87a.18.18 0 01.12.043c.04.023.071.066.094.128.023.063.04.148.051.256.012.109.017.243.017.402 0 .154-.005.282-.017.385a1.228 1.228 0 01-.051.256.279.279 0 01-.094.137.181.181 0 01-.12.043h-3.272v1.948h2.777a.22.22 0 01.128.042c.04.023.071.066.094.129a.883.883 0 01.06.256c.011.108.017.24.017.393 0 .148-.006.276-.017.384a.864.864 0 01-.06.248.28.28 0 01-.094.137.256.256 0 01-.128.034h-2.777v2.205h3.307a.18.18 0 01.119.043c.04.022.071.068.094.136.023.063.04.148.051.257.018.102.026.23.026.384zm9.271.564a.19.19 0 01-.059.137.406.406 0 01-.18.102 1.8 1.8 0 01-.333.052 4.666 4.666 0 01-.539.025 4.66 4.66 0 01-.538-.025 1.953 1.953 0 01-.333-.052.406.406 0 01-.18-.102.232.232 0 01-.042-.137V17.66h-1.743a60.628 60.628 0 01-.428 2.82 18.71 18.71 0 01-.461 2.016c-.165.547-.348.992-.547 1.333a2.66 2.66 0 01-.666.804 2.002 2.002 0 01-.829.376 4.917 4.917 0 01-1.06.102.582.582 0 01-.214-.034.276.276 0 01-.145-.111.695.695 0 01-.077-.24 2.803 2.803 0 01-.025-.418c0-.24.005-.43.017-.573.011-.148.028-.262.051-.341.029-.08.063-.131.103-.154a.28.28 0 01.153-.043.938.938 0 00.393-.085.922.922 0 00.368-.325c.114-.165.225-.396.333-.692.108-.302.214-.698.316-1.188.109-.49.214-1.085.316-1.786.109-.7.217-1.538.325-2.512.034-.24.094-.413.18-.521.085-.109.213-.163.384-.163h4.862c.188 0 .333.052.436.154.108.103.162.262.162.479v8.177zm8.109-.564a2.588 2.588 0 01-.076.65.286.286 0 01-.094.136.183.183 0 01-.12.043h-4.905a.648.648 0 01-.436-.154c-.114-.102-.171-.262-.171-.478v-7.81c0-.217.057-.376.171-.479a.648.648 0 01.436-.154h4.871a.18.18 0 01.119.043c.04.023.072.066.094.128.023.063.04.148.052.256.011.109.017.243.017.402 0 .154-.006.282-.017.385a1.29 1.29 0 01-.052.256.272.272 0 01-.094.137.18.18 0 01-.119.043h-3.273v1.948h2.777c.046 0 .088.014.128.042.04.023.072.066.094.129a.822.822 0 01.06.256c.012.108.017.24.017.393 0 .148-.005.276-.017.384a.802.802 0 01-.06.248.273.273 0 01-.094.137.254.254 0 01-.128.034h-2.777v2.205h3.307a.18.18 0 01.12.043c.039.022.071.068.094.136.022.063.039.148.051.257.017.102.025.23.025.384zm9.289.581a.205.205 0 01-.051.137.355.355 0 01-.18.094 1.96 1.96 0 01-.35.051 6.983 6.983 0 01-.539.017 6.05 6.05 0 01-.615-.025 2.517 2.517 0 01-.384-.052.567.567 0 01-.205-.102.49.49 0 01-.094-.163l-.752-2.025a7.7 7.7 0 00-.308-.726 1.535 1.535 0 00-.316-.461.941.941 0 00-.393-.24 1.702 1.702 0 00-.513-.068h-.384v3.52c0 .046-.02.092-.06.137a.563.563 0 01-.197.111 1.778 1.778 0 01-.342.069 4.368 4.368 0 01-.512.025 4.6 4.6 0 01-.53-.025 1.766 1.766 0 01-.333-.069.558.558 0 01-.188-.11.23.23 0 01-.052-.138v-8.502c0-.051.018-.097.052-.136a.476.476 0 01.188-.103 1.8 1.8 0 01.333-.068c.142-.017.319-.026.53-.026.199 0 .37.009.512.026.143.017.257.04.342.068a.486.486 0 01.197.103c.04.04.06.085.06.136v3.29h.384c.177 0 .333-.023.47-.068.137-.046.262-.123.376-.231.114-.114.219-.265.316-.453s.197-.424.299-.71l.65-1.81a.739.739 0 01.094-.172.312.312 0 01.171-.102c.085-.029.202-.049.35-.06a8.43 8.43 0 01.598-.017c.217 0 .393.006.53.017.142.011.25.029.325.051.079.023.133.054.162.094a.164.164 0 01.051.12c0 .057-.011.134-.034.23a3.25 3.25 0 01-.12.36l-.632 1.589c-.125.33-.253.604-.384.82a2.82 2.82 0 01-.394.539 1.962 1.962 0 01-.401.341c-.131.08-.265.143-.402.188v.026a2.176 2.176 0 01.94.649c.137.16.268.357.393.59.131.228.262.498.393.812l.769 1.88c.04.09.072.168.094.23.023.063.04.117.052.163.017.04.025.074.025.102a.377.377 0 01.009.077zm10.023-4.409c0 .763-.103 1.447-.308 2.05a4.032 4.032 0 01-.888 1.522c-.393.416-.88.732-1.461.948-.576.217-1.237.325-1.983.325-.735 0-1.384-.085-1.948-.256a3.432 3.432 0 01-1.41-.812c-.382-.376-.672-.86-.872-1.453-.193-.598-.29-1.316-.29-2.153 0-.735.102-1.399.307-1.991a4.155 4.155 0 01.906-1.504 3.807 3.807 0 011.453-.948c.581-.223 1.245-.334 1.991-.334.706 0 1.336.089 1.888.265a3.53 3.53 0 011.419.83c.387.37.683.845.888 1.426.205.581.308 1.276.308 2.085zm-2.307.103c0-.456-.04-.866-.12-1.23a2.492 2.492 0 00-.376-.932 1.7 1.7 0 00-.7-.598c-.285-.137-.636-.206-1.051-.206-.433 0-.795.08-1.086.24a1.92 1.92 0 00-.709.64 2.787 2.787 0 00-.384.932 5.45 5.45 0 00-.111 1.12c0 .484.037.914.111 1.29.079.376.208.695.384.957.177.256.407.453.692.59.285.13.635.196 1.051.196.422 0 .778-.077 1.068-.23.297-.16.536-.374.718-.642a2.78 2.78 0 00.393-.957c.08-.364.12-.755.12-1.17zm15.637 4.29a.216.216 0 01-.051.144.337.337 0 01-.163.103c-.074.023-.179.04-.316.051-.136.012-.31.017-.521.017-.216 0-.393-.005-.53-.017a1.754 1.754 0 01-.324-.051.337.337 0 01-.163-.103.247.247 0 01-.043-.145v-6.981h-.017l-2.572 7.024c-.022.097-.114.168-.273.213-.16.04-.419.06-.778.06-.182 0-.339-.005-.47-.017a1.7 1.7 0 01-.307-.051.573.573 0 01-.188-.085.29.29 0 01-.086-.12l-2.538-7.024h-.017v6.981a.216.216 0 01-.051.145c-.028.04-.082.074-.162.103-.074.023-.18.04-.316.051a6.643 6.643 0 01-.53.017 6.36 6.36 0 01-.53-.017 1.74 1.74 0 01-.316-.051.334.334 0 01-.154-.103.247.247 0 01-.043-.145v-8.083c0-.234.066-.413.197-.539a.723.723 0 01.521-.188h1.495c.257 0 .476.023.658.069a1.3 1.3 0 01.47.213c.131.097.24.228.325.393.091.16.171.353.239.581l1.855 4.888h.034l1.905-4.862c.074-.24.154-.442.24-.607.091-.165.196-.296.316-.393a1.07 1.07 0 01.436-.213c.165-.046.358-.069.581-.069h1.478c.222 0 .396.063.521.188.125.126.188.305.188.539v8.083zM122.75 37.598c0 .233-.014.418-.042.555a.594.594 0 01-.163.333c-.08.08-.194.16-.342.24a3.03 3.03 0 01-.521.222 4.245 4.245 0 01-.701.162 4.781 4.781 0 01-.837.068c-.666 0-1.27-.096-1.811-.29a3.632 3.632 0 01-1.376-.872c-.382-.387-.675-.871-.88-1.452-.205-.581-.308-1.256-.308-2.025 0-.775.108-1.462.325-2.06.222-.598.527-1.1.914-1.504a3.8 3.8 0 011.41-.914 4.999 4.999 0 011.811-.316c.245 0 .485.02.718.06.24.04.459.094.658.162.205.063.388.137.547.222.16.086.279.168.359.248.08.08.137.19.171.333.034.137.051.348.051.633a2.729 2.729 0 01-.077.675.282.282 0 01-.094.145.18.18 0 01-.119.043c-.069 0-.154-.037-.257-.111a3.082 3.082 0 00-.401-.257 3.356 3.356 0 00-.598-.248 2.605 2.605 0 00-.838-.12c-.353 0-.666.072-.94.214a1.911 1.911 0 00-.692.59 2.875 2.875 0 00-.419.923 4.547 4.547 0 00-.145 1.188c0 .512.057.957.171 1.333.114.37.273.675.478.914.211.233.459.407.744.521.29.108.612.163.965.163.297 0 .553-.035.77-.103.222-.074.413-.151.572-.23.16-.086.293-.163.402-.231.114-.075.205-.112.273-.112a.16.16 0 01.103.035c.028.022.051.065.068.128.017.062.028.154.034.273.012.114.017.268.017.462zm10.442-3.256c0 .763-.102 1.447-.307 2.05a4.047 4.047 0 01-.889 1.522c-.393.416-.88.732-1.461.948-.576.217-1.236.325-1.983.325-.735 0-1.384-.086-1.948-.256a3.432 3.432 0 01-1.41-.812c-.382-.376-.672-.86-.871-1.453-.194-.598-.291-1.316-.291-2.153 0-.735.103-1.399.308-1.991a4.14 4.14 0 01.905-1.504 3.815 3.815 0 011.453-.948c.581-.223 1.245-.334 1.991-.334.706 0 1.336.089 1.888.265a3.53 3.53 0 011.419.83c.387.37.683.845.889 1.426.205.581.307 1.276.307 2.085zm-2.307.103c0-.456-.04-.866-.12-1.23a2.492 2.492 0 00-.376-.932 1.7 1.7 0 00-.7-.598c-.285-.137-.635-.206-1.051-.206-.433 0-.795.08-1.086.24a1.93 1.93 0 00-.709.64 2.787 2.787 0 00-.384.932 5.45 5.45 0 00-.111 1.12c0 .484.037.914.111 1.29.079.376.208.695.384.957.177.256.408.453.692.59.285.13.636.196 1.051.196.422 0 .778-.077 1.069-.23.296-.16.535-.374.717-.642.183-.273.314-.592.393-.957.08-.364.12-.755.12-1.17zm12.92-.103c0 .763-.103 1.447-.308 2.05a4.032 4.032 0 01-.888 1.522c-.393.416-.88.732-1.462.948-.575.217-1.236.325-1.982.325-.735 0-1.384-.086-1.948-.256a3.432 3.432 0 01-1.41-.812c-.382-.376-.672-.86-.872-1.453-.193-.598-.29-1.316-.29-2.153 0-.735.102-1.399.307-1.991a4.155 4.155 0 01.906-1.504 3.807 3.807 0 011.453-.948c.581-.223 1.245-.334 1.991-.334.706 0 1.336.089 1.888.265a3.537 3.537 0 011.419.83c.387.37.683.845.888 1.426.205.581.308 1.276.308 2.085zm-2.307.103c0-.456-.04-.866-.12-1.23a2.492 2.492 0 00-.376-.932 1.7 1.7 0 00-.7-.598c-.285-.137-.636-.206-1.052-.206-.432 0-.794.08-1.085.24a1.92 1.92 0 00-.709.64 2.767 2.767 0 00-.384.932 5.38 5.38 0 00-.112 1.12c0 .484.037.914.112 1.29.079.376.207.695.384.957.177.256.407.453.692.59.285.13.635.196 1.051.196.422 0 .778-.077 1.068-.23.297-.16.536-.374.718-.642a2.78 2.78 0 00.393-.957c.08-.364.12-.755.12-1.17zm11.467 1.7c0 .347-.051.658-.154.931a2.368 2.368 0 01-.427.727c-.182.21-.399.393-.649.547-.251.148-.516.27-.795.367a4.77 4.77 0 01-.914.214 8.334 8.334 0 01-1.128.068H146.3a.627.627 0 01-.436-.154c-.114-.102-.171-.262-.171-.478v-7.81c0-.217.057-.376.171-.479a.627.627 0 01.436-.154h5.725a.23.23 0 01.137.043c.04.023.071.066.094.128a.883.883 0 01.06.256c.017.109.025.243.025.402 0 .154-.008.282-.025.385a.865.865 0 01-.06.248.336.336 0 01-.103.136.228.228 0 01-.136.043h-4.119v1.99h1.521c.712 0 1.265.058 1.658.172.398.108.737.273 1.017.495.279.217.492.487.64.812.154.32.231.69.231 1.111zm-2.239.111c0-.2-.034-.373-.102-.521a.945.945 0 00-.299-.368 1.32 1.32 0 00-.479-.213 3.241 3.241 0 00-.752-.069h-1.196v2.316h1.213c.388 0 .673-.028.855-.085.182-.057.327-.137.436-.24a.89.89 0 00.247-.367 1.31 1.31 0 00.077-.453zm16.817 5.247a.162.162 0 01-.052.12c-.028.04-.082.07-.162.093a1.148 1.148 0 01-.299.06 3.651 3.651 0 01-.478.026c-.194 0-.354-.009-.479-.026a1.515 1.515 0 01-.291-.051.284.284 0 01-.145-.094.196.196 0 01-.043-.128V39h-10.313a.652.652 0 01-.453-.154c-.108-.108-.162-.267-.162-.478v-8.203c0-.046.017-.086.051-.12a.412.412 0 01.188-.094c.085-.029.196-.049.333-.06a6.5 6.5 0 01.521-.017c.393 0 .672.026.838.077.165.046.247.117.247.214v7.117h2.649v-7.126c0-.046.015-.085.043-.12a.351.351 0 01.18-.094 1.91 1.91 0 01.333-.05c.137-.012.307-.018.513-.018.205 0 .373.006.504.017.136.012.247.029.333.051a.352.352 0 01.179.094.162.162 0 01.052.12v7.127h2.657v-7.127c0-.046.017-.085.051-.12a.41.41 0 01.18-.094 1.91 1.91 0 01.333-.05c.142-.012.316-.018.521-.018.405 0 .687.023.846.068.16.04.24.111.24.214v7.127h.7c.137 0 .234.028.291.085.062.051.094.157.094.316v3.82zm7.331-3.333c0 .154-.008.285-.025.393a1.292 1.292 0 01-.052.257.273.273 0 01-.094.136.18.18 0 01-.119.043h-4.905a.648.648 0 01-.436-.154c-.114-.102-.171-.262-.171-.478v-7.81c0-.217.057-.376.171-.479a.648.648 0 01.436-.154h4.871a.18.18 0 01.119.043c.04.023.071.066.094.128.023.063.04.148.051.256.012.109.018.243.018.402 0 .154-.006.282-.018.385a1.228 1.228 0 01-.051.256.279.279 0 01-.094.137.18.18 0 01-.119.043h-3.273v1.948h2.777c.046 0 .088.014.128.042.04.023.071.066.094.129a.822.822 0 01.06.256c.011.108.017.24.017.393 0 .148-.006.276-.017.384a.802.802 0 01-.06.248.28.28 0 01-.094.137.254.254 0 01-.128.034h-2.777v2.205h3.307a.18.18 0 01.119.043c.04.022.072.068.094.136.023.063.04.148.052.257.017.102.025.23.025.384zm8.306-.572c0 .233-.014.418-.043.555a.599.599 0 01-.162.333c-.08.08-.194.16-.342.24a3.03 3.03 0 01-.521.222 4.245 4.245 0 01-.701.162 4.781 4.781 0 01-.837.068 5.347 5.347 0 01-1.812-.29 3.648 3.648 0 01-1.376-.872 3.874 3.874 0 01-.88-1.452c-.205-.581-.307-1.256-.307-2.025 0-.775.108-1.462.324-2.06.223-.598.527-1.1.915-1.504a3.8 3.8 0 011.41-.914 4.995 4.995 0 011.811-.316c.245 0 .484.02.718.06.239.04.459.094.658.162.205.063.387.137.547.222.159.086.279.168.359.248a.7.7 0 01.171.333c.034.137.051.348.051.633 0 .165-.009.302-.026.41a1.244 1.244 0 01-.051.265.282.282 0 01-.094.145.18.18 0 01-.12.043c-.068 0-.153-.037-.256-.111a3.295 3.295 0 00-1-.504 2.594 2.594 0 00-.837-.12c-.353 0-.667.07-.94.213a1.903 1.903 0 00-.692.59 2.854 2.854 0 00-.419.923 4.547 4.547 0 00-.145 1.188c0 .512.057.957.171 1.333.114.37.273.675.478.914.211.233.459.407.744.521.29.108.612.163.965.163.296 0 .553-.035.769-.103.222-.074.413-.151.573-.23.159-.086.293-.163.401-.231.114-.075.205-.112.274-.112.04 0 .074.012.102.035.029.022.052.065.069.128.017.062.028.154.034.273.011.114.017.268.017.462zm7.938-6.81c0 .318-.025.543-.077.674-.045.126-.114.188-.205.188h-2.179v7.084c0 .057-.02.105-.06.145a.402.402 0 01-.179.103 1.8 1.8 0 01-.333.051 6.983 6.983 0 01-.539.017c-.222 0-.404-.005-.546-.017a1.982 1.982 0 01-.334-.051.486.486 0 01-.179-.103.216.216 0 01-.051-.145V31.65h-2.179a.218.218 0 01-.129-.042.384.384 0 01-.094-.146 1.387 1.387 0 01-.051-.265 4.335 4.335 0 01-.017-.41c0-.165.006-.302.017-.41.012-.114.029-.202.051-.265a.384.384 0 01.094-.145.218.218 0 01.129-.043h6.579a.18.18 0 01.12.043.32.32 0 01.085.145.846.846 0 01.06.265c.011.108.017.245.017.41zm8.853 5.451c0 .342-.052.647-.154.914a2.173 2.173 0 01-.419.71 2.442 2.442 0 01-.632.52 4.315 4.315 0 01-.803.36c-.285.09-.59.156-.915.196-.324.04-.686.06-1.085.06h-2.854a.648.648 0 01-.436-.154c-.114-.102-.171-.262-.171-.478v-7.81c0-.217.057-.376.171-.479a.648.648 0 01.436-.154h2.88a7.35 7.35 0 011.478.128 2.98 2.98 0 011.051.41c.285.189.504.428.658.718.154.29.231.641.231 1.051 0 .223-.032.433-.094.633a1.874 1.874 0 01-.257.538c-.114.16-.253.3-.418.419a1.92 1.92 0 01-.547.282c.268.045.515.125.743.239.228.108.425.253.59.436.171.176.305.387.401.632.097.245.146.521.146.829zm-2.786-3.7c0-.165-.026-.313-.077-.444a.819.819 0 00-.239-.333 1.065 1.065 0 00-.402-.206 2.354 2.354 0 00-.641-.068h-1.179v2.153h1.256c.268 0 .476-.028.624-.085a1.15 1.15 0 00.368-.24.97.97 0 00.213-.35 1.21 1.21 0 00.077-.427zm.427 3.76c0-.182-.031-.345-.094-.487a.895.895 0 00-.273-.376 1.17 1.17 0 00-.47-.23c-.194-.058-.459-.086-.795-.086h-1.333v2.307h1.53c.267 0 .484-.026.649-.077.165-.051.305-.126.419-.222a.95.95 0 00.273-.35 1.17 1.17 0 00.094-.48zm12.091 1.888c.063.2.106.356.129.47.022.114.002.202-.06.265-.063.057-.18.091-.351.103a7.486 7.486 0 01-.717.025c-.28 0-.499-.005-.658-.017a2.232 2.232 0 01-.359-.034.344.344 0 01-.171-.094.757.757 0 01-.077-.18l-.555-1.623h-3.504l-.521 1.572a.715.715 0 01-.103.197.36.36 0 01-.179.11 1.16 1.16 0 01-.35.052 8.074 8.074 0 01-.59.017c-.256 0-.456-.008-.598-.025-.137-.018-.234-.057-.291-.12-.051-.063-.068-.154-.051-.273.023-.12.066-.277.128-.47l2.854-7.87a.668.668 0 01.12-.214.47.47 0 01.231-.128 2.14 2.14 0 01.418-.06 17.727 17.727 0 011.299-.009c.171 0 .313.006.427.018.12.011.217.028.291.05a.47.47 0 01.179.078.366.366 0 01.12.128.839.839 0 01.077.17l2.862 7.862zm-4.554-6.451h-.017l-1.239 3.725h2.503l-1.247-3.725zM68.838 40.268l11.473-10.003c.436.298 1.017.597 1.598.895l-10.312 9.108h-2.759zm-10.747 0l17.863-15.826c.146.597.436 1.194.727 1.642L60.704 40.268H58.09zm5.519 0l14.232-12.542c.29.448.581.747 1.017 1.195l.145.15-12.78 11.197H63.61z" fill="#3880F4"/><path d="M103.838 29.369c-.871 1.94-2.178 3.583-3.631 5.076-3.485 3.584-8.132 5.674-13.506 5.674-.435 0-1.016 0-1.452.15H74.502l9.44-8.362c.871.15 1.743.299 2.76.299 2.904 0 5.663-1.195 7.696-2.987h9.44v.15zM86.847 1c5.228 0 10.02 2.24 13.506 5.674A20.128 20.128 0 01105 14.289h-8.423a11.236 11.236 0 00-1.598-2.09 11.367 11.367 0 00-8.132-3.435c-3.195 0-5.955 1.344-8.133 3.434-2.034 2.09-3.34 5.077-3.34 8.361 0 .598 0 1.195.145 1.643l-6.39 5.524c-.872-2.24-1.307-4.628-1.307-7.316 0-5.375 2.178-10.302 5.518-13.886C76.826 3.24 81.618 1 86.847 1zm-44.15 1.194h32.677c-1.308.896-2.47 1.792-3.631 2.987-1.453 1.493-2.76 3.284-3.776 5.076H56.058v18.515l-9.73 8.36V10.258H33.693l9.004-8.063zm-21.348 8.511V39.97h-9.73V19.066l9.73-8.36zM0 2.195h39.938l-9.004 8.062H0V2.194z" fill="#3880F4"/></svg>