<svg width="42" height="37" fill="none" xmlns="http://www.w3.org/2000/svg"><path fill-rule="evenodd" clip-rule="evenodd" d="M41 27.517a1 1 0 001-1V1a1 1 0 00-1-1H1a1 1 0 00-1 1v25.517a1 1 0 001 1h9.138v7.893c0 .866 1.025 1.322 1.669.743l9.595-8.636H41z" fill="#fff"/><path d="M13 14.005c0-.64.18-1.135.54-1.483.366-.348.895-.522 1.587-.522.66 0 1.166.174 1.518.522.353.348.53.843.53 1.483 0 .627-.183 1.118-.55 1.473-.36.348-.858.522-1.498.522-.659 0-1.178-.174-1.558-.522-.38-.348-.569-.84-.569-1.473zm5.913 0c0-.64.18-1.135.539-1.483.366-.348.895-.522 1.588-.522.66 0 1.165.174 1.518.522.353.348.53.843.53 1.483 0 .627-.184 1.118-.55 1.473-.36.348-.859.522-1.498.522-.66 0-1.179-.174-1.558-.522-.38-.348-.57-.84-.57-1.473zm5.912 0c0-.64.18-1.135.54-1.483.366-.348.895-.522 1.588-.522.659 0 1.165.174 1.518.522.353.348.529.843.529 1.483 0 .627-.183 1.118-.55 1.473-.359.348-.858.522-1.497.522-.66 0-1.179-.174-1.558-.522-.38-.348-.57-.84-.57-1.473z" fill="#1A64DA"/></svg>