<svg width="308" height="337" fill="none" xmlns="http://www.w3.org/2000/svg"><path d="M190.42 164.091c33.863 0 64.904 14.414 87.479 36.515 13.169 13.453 23.516 29.788 30.101 49.006h-54.557c-2.822-4.804-6.585-9.609-10.347-13.452-13.169-13.453-31.982-22.101-52.676-22.101-20.694 0-38.567 8.648-52.676 22.101-13.169 13.452-21.635 32.671-21.635 53.811 0 3.843 0 7.687.941 10.57l-41.388 35.553c-5.644-14.413-8.466-29.788-8.466-47.084 0-34.593 14.11-66.303 35.744-89.365 22.576-21.14 53.617-35.554 87.48-35.554z" fill="#3880F4"/><path d="M137.476 141.357c-16.54 15.759-38.409 23.165-59.72 22.876-12.693-.442-25.35-3.605-37.509-9.927l26.647-25.39c3.614 1.033 7.688 1.629 11.315 1.755a49.823 49.823 0 0036.013-13.72c10.108-9.63 14.812-22.171 15.443-35.309.172-12.699-4.637-26.025-14.475-36.35-1.789-1.878-3.578-3.755-5.379-4.726L113.48 3.94c9.465 4.413 17.998 10.61 26.047 19.057 16.099 16.896 23.965 38.95 24.13 60.283-1.188 20.832-9.641 42.318-26.181 58.077z" fill="#99F2DC"/></svg>