<svg width="290" height="206" fill="none" xmlns="http://www.w3.org/2000/svg"><path d="M148.398 0c40.782 0 78.165 17.263 105.352 43.732 15.859 16.112 28.32 35.676 36.25 58.693h-65.703c-3.399-5.755-7.93-11.509-12.461-16.112-15.859-16.112-38.516-26.47-63.438-26.47-24.921 0-46.445 10.358-63.437 26.47-15.86 16.112-26.055 39.128-26.055 64.447 0 4.603 0 9.206 1.133 12.659L10.195 206C3.398 188.737 0 170.324 0 149.609c0-41.43 16.992-79.408 43.047-107.028C70.234 17.263 107.617 0 148.398 0z" fill="#3880F4"/></svg>