<svg width="56" height="56" fill="none" xmlns="http://www.w3.org/2000/svg"><circle cx="28" cy="28" r="28" fill="#61A8DE"/><path d="M15.155 27.685l5.897 2.201 2.283 7.341a.694.694 0 001.103.332l3.287-2.68a.98.98 0 011.195-.033l5.93 4.305a.695.695 0 001.089-.42l4.343-20.893a.695.695 0 00-.93-.79l-24.204 9.337c-.597.23-.592 1.076.007 1.3zm7.812 1.03l11.526-7.1c.207-.126.42.154.242.319l-9.512 8.842c-.334.31-.55.727-.61 1.18l-.325 2.4c-.043.321-.493.353-.582.043L22.46 30.02a1.16 1.16 0 01.507-1.305z" fill="#fff"/></svg>