<svg width="887" height="589" fill="none" xmlns="http://www.w3.org/2000/svg"><g opacity=".6"><path d="M527.883 535.741L843.11 270.157c13.72 9.147 28.093 17.64 43.119 24.5L600.401 535.741h-72.518z" fill="url(#paint0_linear)"/><path d="M282 563.5l488-414c.5 3 17.5 43 20.5 45.5L354.519 563.5H282z" fill="url(#paint1_linear)"/><path d="M256.428 262.317v179.995h-61.085V313.604l61.085-51.287z" fill="url(#paint2_linear)"/><path d="M0 176.402h538.989L417.471 282.57h-128.05v.654H158.43v-.654H0V176.402z" fill="url(#paint3_linear)"/><path d="M256.428 283.224h-24.826l24.826-20.907v20.907z" fill="#E6F5FE"/><path d="M393.625 94.408h321.434l-72.519 63.047h-76.112v.327h-78.071v-.327h-94.732V94.408z" fill="url(#paint4_linear)"/><path d="M592.888 0c84.931 0 162.023 34.627 217.882 90.161 33.319 33.321 58.799 74.155 74.152 119.562H749.685c-7.514-11.76-16.007-22.867-25.806-32.667-33.32-33.321-79.706-54.228-130.664-54.228-50.959 0-97.345 20.581-130.664 54.228-33.32 33.32-54.226 79.707-54.226 130.668 0 9.147.653 18.294 1.96 27.114L307.06 422.059c-14.046-35.281-21.886-73.828-21.886-114.335 0-84.934 34.299-162.029 90.158-217.89C430.865 34.627 507.956 0 592.888 0z" fill="url(#paint5_linear)"/><path d="M772.551 209.723h-22.866c-5.88-9.147-12.413-17.967-19.6-25.807l40.179-34.627c5.554 15.68 12.087 31.033 19.927 45.407l-17.64 15.027z" fill="url(#paint6_linear)"/><path d="M463.204 176.402l-.653.654c-27.766 27.767-46.713 64.354-52.266 105.188H289.421v.653h-3.267c2.94-37.894 12.74-73.828 28.42-106.495h148.63z" fill="#D0EDF8"/><path d="M665.08 137.855c-22.213-9.473-46.713-14.7-72.192-14.7-39.853 0-77.092 12.74-107.145 34.3h-92.118V94.408h321.434l-49.979 43.447z" fill="url(#paint7_linear)"/><path d="M231.602 306.091v282.57h-95.711V386.125l95.711-80.034z" fill="url(#paint8_linear)"/><path d="M777.778 377.305c-5.88 11.76-13.393 22.54-22.54 31.687-21.886 21.887-51.939 35.281-84.931 35.281-2.94 0-5.88.326-9.474.653h-67.618l59.779-50.961c5.553 1.307 11.433 1.96 17.313 1.96 18.619 0 35.605-7.186 48.345-18.62h59.126z" fill="#A2DCF6"/><path d="M777.777 377.305c-3.266 6.207-6.859 12.414-11.106 17.967l-42.792 35.934c-16.007 8.167-34.3 12.74-53.573 12.74-2.94 0-5.88.327-9.473.653H635.68l67.292-56.514c5.88-2.94 11.107-6.533 15.68-10.78h59.125z" fill="#B1E2FA"/><path d="M670.306 203.516c33.319 0 63.372 13.394 84.932 35.28 13.066 13.067 22.866 28.748 29.072 46.714h-52.919c-2.94-4.573-6.206-8.82-10.126-12.74-13.066-13.067-31.033-21.233-50.959-21.233-19.926 0-37.892 8.166-50.959 21.233-13.066 13.067-21.233 31.034-21.233 50.961 0 3.593.327 7.187.654 10.453l-40.18 34.301c-5.553-13.72-8.493-28.747-8.493-44.427 0-33.321 13.393-63.375 35.279-84.935 21.56-22.213 51.613-35.607 84.932-35.607z" fill="url(#paint9_linear)"/><path d="M606.281 290.084a73.143 73.143 0 00-8.166 33.647c0 3.593.326 7.187.653 10.453l-40.179 34.301c-3.92-9.474-6.533-19.927-7.84-30.38l55.532-48.021zm95.712-82.321c16.986 4.573 32.339 12.74 45.079 23.847l-37.24 32.014c-11.433-7.514-25.152-12.087-39.852-12.087-8.167 0-16.333 1.306-23.52 3.92l55.533-47.694z" fill="#C9EAF9"/><path d="M391.339 210.049h206.122c-8.166 5.227-15.679 11.434-22.539 18.294-9.473 9.473-17.313 19.927-23.52 31.36h-75.785v114.009l-61.412 51.287V259.703h-80.032l57.166-49.654z" fill="#9FDDF9"/><path d="M120.864 210.049h252.508l-56.838 49.654h-60.106v.327h-61.085v-.327h-74.479v-49.654z" fill="url(#paint10_linear)"/><path d="M231.602 306.091v136.222h-36.259V336.471l36.259-30.38zm57.165-46.388c2.613-16.986 6.86-33.647 12.086-49.654h72.519l-56.839 49.654h-27.766z" fill="#E6F5FE"/><path d="M500.77 210.049l-83.299 72.521h-3.266v-22.867H334.5l56.839-49.654H500.77z" fill="#D0EDF8"/><path d="M436.091 210.049c-9.8 15.354-16.986 32.341-21.886 50.634v-.98h-80.032l56.839-49.654h45.079z" fill="#E6F5FE"/><path d="M489.01 444.599l113.024-97.348c1.307 3.594 2.614 6.86 4.574 10.127l-101.265 87.221H489.01z" fill="#CDECF8"/><path d="M523.636 444.599l89.505-77.094c1.96 2.287 3.92 4.9 6.207 6.86l.979.98-80.358 68.928h-16.333v.326z" fill="#A2DCF6"/><path d="M556.628 444.599l72.846-61.414c3.266 2.287 6.533 3.92 10.126 5.554l-66.312 55.534h-16.66v.326z" fill="#B4DFF2"/></g><defs><linearGradient id="paint0_linear" x1="849" y1="282" x2="554" y2="553.5" gradientUnits="userSpaceOnUse"><stop stop-color="#A5DEF5"/><stop offset="1" stop-color="#A5DEF5" stop-opacity="0"/></linearGradient><linearGradient id="paint1_linear" x1="757.5" y1="184" x2="321" y2="564" gradientUnits="userSpaceOnUse"><stop stop-color="#A5DEF5"/><stop offset="1" stop-color="#A5DEF5" stop-opacity="0"/></linearGradient><linearGradient id="paint2_linear" x1="225.886" y1="262.317" x2="226" y2="401.5" gradientUnits="userSpaceOnUse"><stop stop-color="#D0EDF8"/><stop offset="1" stop-color="#D0EDF8" stop-opacity="0"/></linearGradient><linearGradient id="paint3_linear" x1="501.003" y1="229.478" x2="159" y2="230" gradientUnits="userSpaceOnUse"><stop stop-color="#A3DEF7"/><stop offset="1" stop-color="#D0EDF8" stop-opacity=".17"/></linearGradient><linearGradient id="paint4_linear" x1="677.744" y1="141.108" x2="410.495" y2="136.832" gradientUnits="userSpaceOnUse"><stop stop-color="#83CFF2"/><stop offset="1" stop-color="#A2DBF6"/></linearGradient><linearGradient id="paint5_linear" x1="845.933" y1="163.913" x2="322.125" y2="184.58" gradientUnits="userSpaceOnUse"><stop stop-color="#3880F4" stop-opacity=".5"/><stop offset="1" stop-color="#B7E4F9"/></linearGradient><linearGradient id="paint6_linear" x1="776.5" y1="167" x2="745.5" y2="200" gradientUnits="userSpaceOnUse"><stop stop-color="#65B8FC"/><stop offset="1" stop-color="#A2D1F9" stop-opacity="0"/></linearGradient><linearGradient id="paint7_linear" x1="688.434" y1="94.072" x2="393.391" y2="125.429" gradientUnits="userSpaceOnUse"><stop stop-color="#9BDCF8"/><stop offset="1" stop-color="#B8E4F9"/></linearGradient><linearGradient id="paint8_linear" x1="183.746" y1="306.091" x2="183.746" y2="588.661" gradientUnits="userSpaceOnUse"><stop stop-color="#D0EDF8"/><stop offset="1" stop-color="#D0EDF8" stop-opacity="0"/></linearGradient><linearGradient id="paint9_linear" x1="748.298" y1="267.249" x2="590.087" y2="286.491" gradientUnits="userSpaceOnUse"><stop stop-color="#83D5F7"/><stop offset="1" stop-color="#B6E4F9"/></linearGradient><linearGradient id="paint10_linear" x1="349.5" y1="230" x2="145.5" y2="227.5" gradientUnits="userSpaceOnUse"><stop stop-color="#DBF1FB"/><stop offset="1" stop-color="#DBF1FB" stop-opacity="0"/></linearGradient></defs></svg>