<svg width="56" height="56" fill="none" xmlns="http://www.w3.org/2000/svg"><circle cx="28" cy="28" r="28" fill="#47668D"/><path fill-rule="evenodd" clip-rule="evenodd" d="M27.678 35.933h1.793s.542-.056.818-.334c.256-.256.247-.737.247-.737s-.035-2.249 1.082-2.58c1.1-.327 2.514 2.173 4.012 3.135 1.134.728 1.995.568 1.995.568l4.006-.052s2.095-.121 1.102-1.661c-.082-.126-.58-1.14-2.98-3.223-2.512-2.18-2.175-1.827.852-5.598 1.842-2.295 2.579-3.697 2.348-4.297-.22-.573-1.574-.421-1.574-.421l-4.512.025s-.334-.042-.582.096c-.242.136-.397.453-.397.453s-.715 1.777-1.667 3.288c-2.008 3.189-2.812 3.357-3.14 3.159-.764-.462-.573-1.853-.573-2.842 0-3.091.502-4.38-.976-4.713-.49-.11-.852-.183-2.106-.195-1.609-.016-2.971.004-3.742.357-.514.235-.91.759-.669.788.298.038.974.17 1.332.626.462.589.446 1.909.446 1.909s.266 3.637-.621 4.09c-.608.309-1.442-.323-3.233-3.217-.917-1.481-1.61-3.12-1.61-3.12s-.134-.305-.372-.47c-.289-.198-.693-.261-.693-.261l-4.287.027s-.643.016-.879.278c-.21.233-.017.714-.017.714s3.356 7.34 7.156 11.039c3.485 3.392 7.441 3.169 7.441 3.169z" fill="#fff"/></svg>