<svg width="516" height="145" fill="none" xmlns="http://www.w3.org/2000/svg"><path d="M145.554 124.933C157.969 137.079 175.04 145 193.662 145c18.623 0 35.694-7.921 48.109-19.539 7.184-7.653 12.86-17.04 16.229-27.461h-29.641a40.884 40.884 0 01-5.728 7.393c-7.76 7.394-17.588 12.146-28.969 12.146a40.625 40.625 0 01-28.968-12.146c-2.07-2.112-4.139-4.753-5.691-7.393H129c3.621 10.562 9.311 19.539 16.554 26.933z" fill="#3880F4"/><path d="M137.554 73.933C149.969 86.079 167.04 94 185.662 94c18.623 0 35.694-7.921 48.109-19.54C240.955 66.809 246.631 57.423 250 47h-29.641a40.876 40.876 0 01-5.728 7.393c-7.76 7.393-17.588 12.146-28.969 12.146a40.629 40.629 0 01-28.968-12.146c-2.07-2.112-4.139-4.752-5.691-7.393H121c3.621 10.562 9.311 19.54 16.554 26.933z" fill="#99F2DC"/><path d="M403.554 124.933C415.969 137.079 433.04 145 451.662 145c18.623 0 35.694-7.921 48.109-19.539 7.184-7.653 12.86-17.04 16.229-27.461h-29.641a40.884 40.884 0 01-5.728 7.393c-7.76 7.394-17.588 12.146-28.969 12.146a40.625 40.625 0 01-28.968-12.146c-2.07-2.112-4.139-4.753-5.691-7.393H387c3.621 10.562 9.311 19.539 16.554 26.933z" fill="#3880F4"/><path d="M395.554 73.933C407.969 86.079 425.04 94 443.662 94c18.623 0 35.694-7.921 48.109-19.54C498.955 66.809 504.631 57.423 508 47h-29.641a40.876 40.876 0 01-5.728 7.393c-7.76 7.393-17.588 12.146-28.969 12.146a40.629 40.629 0 01-28.968-12.146c-2.07-2.112-4.139-4.752-5.691-7.393H379c3.621 10.562 9.311 19.54 16.554 26.933z" fill="#99F2DC"/><path d="M370.446 71.067C358.031 58.921 340.96 51 322.338 51c-18.623 0-35.694 7.921-48.109 19.54C267.045 78.191 261.369 87.578 258 98h29.641a40.876 40.876 0 015.728-7.393c7.76-7.394 17.588-12.146 28.969-12.146a40.629 40.629 0 0128.968 12.146c2.07 2.112 4.139 4.752 5.691 7.393H387c-3.621-10.562-9.311-19.54-16.554-26.933z" fill="#3880F4"/><path d="M362.446 20.067C350.031 7.921 332.96 0 314.338 0c-18.623 0-35.694 7.921-48.109 19.54C259.045 27.191 253.369 36.578 250 47h29.641a40.876 40.876 0 015.728-7.393c7.76-7.393 17.588-12.146 28.969-12.146a40.629 40.629 0 0128.968 12.146c2.07 2.112 4.139 4.752 5.691 7.393H379c-3.621-10.562-9.311-19.54-16.554-26.933z" fill="#99F2DC"/><path d="M112.446 71.067C100.031 58.921 82.96 51 64.338 51c-18.623 0-35.694 7.921-48.109 19.54C9.045 78.191 3.369 87.578 0 98h29.641a40.849 40.849 0 015.728-7.393c7.76-7.394 17.588-12.146 28.969-12.146a40.63 40.63 0 0128.968 12.146c2.07 2.112 4.139 4.752 5.69 7.393H129c-3.621-10.562-9.311-19.54-16.554-26.933z" fill="#3880F4"/></svg>