<svg width="56" height="56" fill="none" xmlns="http://www.w3.org/2000/svg"><circle cx="28" cy="28" r="28" fill="#4CAF50"/><path d="M16.399 36.903l.164-.49-.304-.417A14.385 14.385 0 0113.5 27.5c0-7.996 6.502-14.5 14.496-14.5h.008C35.998 13 42.5 19.506 42.5 27.5S35.998 42 28.004 42a14.37 14.37 0 01-7.975-2.395l-.4-.265-.457.146-4.077 1.303 1.304-3.886z" fill="#4CAF50" stroke="#fff" stroke-width="2"/><path d="M34.576 32.038c-.278.766-1.38 1.402-2.26 1.587-.602.125-1.388.225-4.034-.846-3.385-1.37-5.564-4.728-5.734-4.946-.163-.218-1.368-1.778-1.368-3.392 0-1.614.84-2.4 1.178-2.738.278-.276.737-.403 1.177-.403.143 0 .271.007.386.013.338.014.508.033.732.555.277.654.954 2.268 1.035 2.434.082.165.164.39.049.608-.108.225-.203.325-.373.516-.17.191-.331.338-.501.543-.156.178-.331.37-.136.7.196.323.873 1.401 1.87 2.268 1.285 1.117 2.327 1.474 2.7 1.626.278.113.609.086.812-.125.258-.271.576-.721.9-1.164.23-.318.52-.357.826-.245.311.106 1.957.9 2.295 1.065.338.165.561.244.643.383.081.14.081.793-.197 1.56z" fill="#FAFAFA"/></svg>